HIERARCHY
ROOT Hips
{
  OFFSET -142.747 93.7572 -41.9823
  CHANNELS 6 Xposition Yposition Zposition Zrotation Xrotation Yrotation
  JOINT RightUpLeg
  {
    OFFSET -8.9458 -8.66707 0.101652
    CHANNELS 3 Zrotation Xrotation Yrotation
    JOINT RightLeg
    {
      OFFSET 0 -44.4227 1.3727
      CHANNELS 3 Zrotation Xrotation Yrotation
      JOINT RightFoot
      {
        OFFSET 0.253549 -42.0924 -1.46059
        CHANNELS 3 Zrotation Xrotation Yrotation
        JOINT RightToes
        {
          OFFSET 0.04 -4.41509 8.4991
          CHANNELS 3 Zrotation Xrotation Yrotation
          End Site
          {
            OFFSET -0.08 -0.137448 9.77979
          }
        }
      }
    }
  }
  JOINT Spine
  {
    OFFSET 0 11.8905 0
    CHANNELS 3 Zrotation Xrotation Yrotation
    JOINT Spine1
    {
      OFFSET 0 25.6574 0.127663
      CHANNELS 3 Zrotation Xrotation Yrotation
      JOINT HEad
      {
        OFFSET 0 8.73416 0.011341
        CHANNELS 3 Zrotation Xrotation Yrotation
        End Site
        {
          OFFSET -0.29 12.7742 2.51395
        }
      }
      JOINT LeftShoulder1
      {
        OFFSET 8.99 -0.362252 -0.22
        CHANNELS 3 Zrotation Xrotation Yrotation
        JOINT LeftArm
        {
          OFFSET 10.2827 -0.00338 0.322123
          CHANNELS 3 Zrotation Xrotation Yrotation
          JOINT LeftForeArm
          {
            OFFSET 32.7669 0.099144 -1.42434
            CHANNELS 3 Zrotation Xrotation Yrotation
            JOINT LeftHand
            {
              OFFSET 27.5643 0.085362 1.02216
              CHANNELS 3 Zrotation Xrotation Yrotation
              End Site
              {
                OFFSET 16.7443 -0.6 1.50291
              }
            }
          }
        }
      }
      JOINT RightShoulder
      {
        OFFSET -8.99 -0.362252 -0.22
        CHANNELS 3 Zrotation Xrotation Yrotation
        JOINT RightArm
        {
          OFFSET -10.2827 -0.00338 0.322123
          CHANNELS 3 Zrotation Xrotation Yrotation
          JOINT RightForeArm
          {
            OFFSET -32.8971 0.099144 -1.42434
            CHANNELS 3 Zrotation Xrotation Yrotation
            JOINT RightHand
            {
              OFFSET -27.4921 0.085362 1.02216
              CHANNELS 3 Zrotation Xrotation Yrotation
              End Site
              {
                OFFSET -16.6312 -0.6 1.50291
              }
            }
          }
        }
      }
    }
  }
  JOINT LeftUpLeg
  {
    OFFSET 8.9458 -8.66707 0.101652
    CHANNELS 3 Zrotation Xrotation Yrotation
    JOINT LeftLeg
    {
      OFFSET 0 -44.4227 1.3727
      CHANNELS 3 Zrotation Xrotation Yrotation
      JOINT LeftFoot
      {
        OFFSET -0.253549 -42.0924 -1.46059
        CHANNELS 3 Zrotation Xrotation Yrotation
        JOINT LeftToes
        {
          OFFSET -0.04 -4.41509 8.4991
          CHANNELS 3 Zrotation Xrotation Yrotation
          End Site
          {
            OFFSET 0.08 -0.047448 9.77979
          }
        }
      }
    }
  }
}
MOTION
Frames:	13
Frame Time:	0.0166667
-142.747 93.7572 -41.9823 3.08126 -13.8133 15.8522 -6.2185 1.65801 -0.00636948 6.4137 42.1848 4.38143 28.2448 25.2905 -8.20395 -63.0267 -48.3427 -12.6595 2.68707 11.4538 -0.869346 3.22259 23.1431 -1.81229 -2.22599 -14.5374 28.5864 -7.95139e-016 3.18055e-015 -0 -53.9931 -25.5716 -30.5059 -20.9891 8.28601 -52.0567 5.94528 8.55005 -24.957 16.8096 5.37654 24.9405 43.3065 -2.64422 55.6978 6.35614 38.3483 133.649 10.3715 4.16678 -59.1382 21.3783 -11.3624 -9.62637 -1.03486 27.7122 16.4752 -10.0132 13.6977 1.76365 -1.71575 -6.60623 -1.45378 
-141.795 92.4567 -42.0521 3.02686 -14.7028 16.4076 -5.49037 3.93553 0.548946 7.26879 41.3708 2.48252 23.3611 22.3725 -6.15088 -64.9729 -47.8715 -16.5326 3.14371 11.676 -0.709108 3.42968 23.6719 -1.35347 -2.41669 -14.4447 26.8025 -0 -3.18055e-015 -0 -54.5838 -21.4571 -34.8938 -21.0174 2.94408 -49.8816 6.09823 8.52541 -24.6551 15.0624 4.71998 23.7133 46.8376 -3.97533 61.7439 4.72643 38.731 133.453 9.97588 4.20389 -60.5577 21.1455 -11.6452 -9.58089 0.103615 27.0864 15.6426 -9.89653 13.3672 1.71543 -1.46949 -5.60342 -0.172496 
-140.661 91.2242 -42.1202 2.81533 -15.6941 16.7742 -4.79974 6.6341 1.82261 8.13285 40.1681 0.806431 16.8606 16.9126 -3.63277 -61.3039 -45.3541 -17.3513 3.60448 11.8157 -0.549122 3.65358 24.0399 -0.85348 -2.6211 -14.2717 25.312 -7.95139e-016 6.36111e-015 -0 -56.1372 -19.6046 -38.3017 -21.5494 0.545317 -49.2998 6.66909 8.38613 -24.5282 14.5525 4.45574 22.9065 50.1901 -5.18611 67.2148 3.09506 39.5441 132.706 9.35675 4.43129 -61.4886 21.0778 -12.229 -9.2973 0.525335 28.0704 14.2671 -9.99548 13.9933 1.78424 -1.94172 -7.3586 0.303841 
-139.31 90.1086 -42.2173 2.38859 -16.8047 16.8411 -4.25183 9.61319 3.47743 8.78691 38.4682 -0.310499 10.9584 10.87 -1.82003 -54.9278 -42.0033 -16.1235 3.98277 11.983 -0.336456 4.00818 24.4343 -0.295705 -2.8256 -14.3151 24.1014 7.95139e-016 0 -3.18055e-015 -59.4987 -20.1465 -40.7022 -22.6163 1.77239 -50.2551 7.25261 8.21193 -24.9479 14.857 4.43066 22.3942 53.6246 -6.27464 71.9337 1.77236 41.0125 131.692 8.66459 4.7609 -61.9559 21.3259 -13.2655 -8.95863 0.184748 30.9937 13.2243 -10.5001 14.8741 1.95492 -2.93345 -11.0914 0.0521286 
-137.711 89.1667 -42.3557 1.69104 -17.9291 16.4503 -4.00655 12.4068 5.01854 9.05024 36.501 -0.807686 6.7848 6.42468 -0.912225 -49.6457 -39.159 -14.916 4.28573 12.2142 -0.0388955 4.56059 24.9146 0.328057 -3.04079 -14.7693 23.1655 -0 -3.18055e-015 -0 -64.6386 -22.8044 -41.9156 -24.3922 6.68276 -52.3779 7.38838 8.11086 -26.0157 15.4379 4.50622 22.1141 57.042 -7.13304 75.5151 0.879267 42.87 130.82 7.88387 5.19099 -61.9687 21.9687 -14.7815 -8.52019 -0.715284 35.4645 12.7829 -11.6133 16.0711 2.28844 -4.34818 -15.9533 -1.36219 
-135.894 88.4832 -42.5064 0.830343 -18.8005 15.4671 -4.31651 14.3708 6.21645 8.97633 34.8398 -0.590126 4.62343 4.38767 -0.578453 -47.019 -37.6363 -14.5062 4.48719 12.4532 0.349701 5.19569 25.372 1.01854 -3.26699 -15.614 22.5459 7.95139e-016 3.18055e-015 -0 -70.1699 -26.7791 -41.4994 -26.919 14.172 -55.1531 6.68588 8.2106 -27.6246 15.8787 4.59856 22.0937 59.7959 -7.67835 77.4077 0.299045 44.3863 130.462 6.82883 5.81175 -61.512 22.8828 -16.6555 -7.7454 -1.83233 40.4832 12.557 -13.4945 18.4253 2.94367 -6.26257 -21.1734 -4.6131 
-133.936 88.1311 -42.6036 0.102201 -19.1423 13.8951 -5.39294 15.0287 7.2118 8.64863 34.0377 0.415592 4.37628 4.41586 -0.553364 -46.7968 -37.4098 -14.8205 4.47255 12.6071 0.810884 5.63774 25.6298 1.78917 -3.49754 -16.5663 22.2949 0 0 -6.36111e-015 -73.696 -30.6785 -38.9157 -29.6065 22.0031 -58.3621 4.9137 8.63863 -29.524 16.0938 4.67572 22.2493 61.098 -7.85151 77.1694 -0.12718 44.8256 130.729 5.35384 6.68605 -60.4665 23.8277 -18.6497 -6.48894 -3.01096 45.053 12.148 -16.2902 22.4098 4.13371 -8.63438 -25.5739 -9.97019 
-131.931 88.1493 -42.6153 -0.247484 -18.8934 11.814 -7.17427 14.2239 8.15502 8.00439 34.3462 2.14843 5.66033 6.07181 -0.759052 -48.2751 -38.0491 -15.8071 4.28656 12.6097 1.29044 5.66298 25.5811 2.61279 -3.73822 -17.224 22.5025 -7.95139e-016 0 -3.18055e-015 -73.3589 -33.0287 -34.1072 -31.2695 28.0335 -62.4079 2.09623 9.4634 -31.2299 16.2819 4.74639 22.3988 60.5925 -7.49516 74.7731 -0.423443 43.9064 131.311 3.42672 7.79821 -58.5047 24.6875 -20.3581 -4.8482 -4.43157 48.4644 11.4994 -19.9201 27.1912 5.923 -10.6536 -27.5491 -16.1882 
-129.905 88.4858 -42.549 -0.161222 -18.2027 9.31478 -9.37471 11.953 8.89551 6.79378 35.8725 4.43234 8.26748 9.4517 -1.2917 -51.4458 -39.4112 -17.655 3.92549 12.4701 1.72246 5.20393 25.2525 3.41693 -4.01622 -17.345 23.2899 1.59028e-015 -6.36111e-015 3.18055e-015 -68.667 -31.3582 -27.8101 -30.0529 29.453 -68.946 -1.62096 10.6518 -31.9147 16.6277 4.82292 22.3983 58.6051 -6.40226 70.729 -0.533461 41.9096 131.667 1.12636 9.0268 -55.3218 25.4044 -21.4266 -3.05508 -6.26966 50.5294 10.6029 -23.5846 30.8359 7.8256 -11.0946 -26.5528 -20.7189 
-127.858 89.0289 -42.4553 0.214785 -17.2946 6.38432 -11.5891 8.2648 8.98494 4.40814 38.4579 7.25411 12.8258 15.3982 -2.59922 -57.5823 -41.9637 -20.6337 3.39539 12.2477 2.07719 4.3676 24.7569 4.13907 -4.39288 -17.0129 24.762 3.53113e-031 6.36111e-015 -3.18055e-015 -62.8702 -31.0561 -22.3424 -28.4397 30.8967 -74.3621 -5.25116 11.8157 -31.8699 17.0998 4.89651 22.2453 55.891 -4.58887 65.8932 -0.420306 39.5009 131.423 -1.28953 10.1388 -51.1392 25.9548 -21.6076 -1.39468 -8.36956 51.2415 9.60702 -25.7388 31.7909 8.79751 -10.0414 -23.8805 -22.4129 
-125.835 89.6013 -42.4026 0.654897 -16.3882 2.96622 -13.4023 3.45312 8.11221 -0.0225867 41.3495 10.6672 21.1906 24.9572 -6.03465 -68.9034 -46.3969 -25.0291 2.70123 12.0232 2.36056 3.36147 24.2409 4.70268 -4.92816 -16.5604 27.003 -8.82781e-032 -3.18055e-015 -1.59028e-015 -56.3679 -33.3135 -17.9709 -26.9859 32.2792 -77.7551 -8.03446 12.6872 -31.6151 17.5311 4.97389 22.1593 53.1217 -2.45355 61.1109 -0.0201447 37.4541 130.575 -3.39766 10.9222 -46.8746 26.3651 -20.7655 -0.277824 -10.3945 50.5333 9.33905 -25.1384 29.9433 8.17037 -8.77497 -21.478 -22.2422 
-123.936 89.9456 -42.4019 0.975562 -15.7114 -0.777431 -14.4514 -1.66412 6.65109 -6.6031 43.5661 14.6883 35.6231 36.7777 -14.1627 -84.7631 -52.0694 -30.2778 1.68356 11.8735 2.55424 2.41445 23.849 4.91272 -5.5937 -16.3234 30.0504 1.59028e-015 6.36111e-015 7.95139e-016 -49.3 -38.5086 -14.4408 -26.0078 33.3242 -78.0703 -9.15047 13.066 -31.8666 17.8756 5.12508 22.5164 50.5138 -0.65319 56.9603 0.831876 36.3643 129.399 -4.8423 11.3429 -43.5887 26.6694 -18.9451 -0.25581 -12.0393 48.4003 11.0219 -21.9541 26.2966 6.38828 -8.13546 -20.539 -21.0577 
-122.133 90.026 -42.3557 0.792524 -15.477 -4.26659 -14.1793 -5.92784 5.52159 -13.6186 45.0258 19.7309 54.5731 44.8883 -26.8473 -96.2032 -57.0518 -31.9679 0.872765 11.7784 2.39455 1.88629 23.6246 4.41312 -6.22412 -16.3881 33.7571 1.78906e-015 -3.18055e-015 -0 -41.6683 -45.5131 -11.4241 -24.8685 33.6793 -74.847 -7.86543 12.7116 -32.5767 18.4565 5.46898 23.5019 47.694 0.257651 53.6054 2.35264 36.359 128.228 -5.49912 11.487 -41.7118 26.9727 -16.2781 -1.77791 -12.7562 44.7973 14.9252 -17.4643 22.1999 4.41543 -7.77645 -20.5427 -18.3357 
